<?xml version="1.0" standalone="no"?><!DOCTYPE svg PUBLIC "-//W3C//DTD SVG 1.1//EN" "http://www.w3.org/Graphics/SVG/1.1/DTD/svg11.dtd"><svg t="1490000702721" class="icon" style="" viewBox="0 0 1024 1024" version="1.1" xmlns="http://www.w3.org/2000/svg" p-id="4919" xmlns:xlink="http://www.w3.org/1999/xlink" width="128" height="128"><defs><style type="text/css"></style></defs><path d="M981.548142 767.482719c23.263843-36.2189 39.36045-78.158081 39.36045-124.278491 0-68.185962-32.489972-130.111337-85.394902-175.822424-3.844561 43.7402-15.892969 86.511329-35.964096 127.523395-24.224728 49.498344-58.882062 93.858668-103.009072 131.843794-73.375148 63.166645-168.229492 103.688547-272.798083 117.490901 68.658729 43.2265 162.733315 63.776536 271.705192 43.638893 95.743598-17.692964 166.927847 13.725606 212.679867 56.688093C937.428296 841.869916 966.66006 790.663674 981.548142 767.482719z" p-id="4920"></path><path d="M443.479417 72.680323c-243.652276 0-441.168792 162.921603-441.168792 363.895871 0 65.902966 23.000853 125.83187 56.242955 177.585581 21.274536 33.124422 63.044872 106.293885-37.978986 253.043157 65.376986-61.391209 167.093623-106.285698 303.905568-81.003895C651.512451 846.63443 884.649232 650.626267 884.649232 436.576193 884.649232 235.601926 687.131693 72.680323 443.479417 72.680323z" p-id="4921"></path></svg>